PathFileType	4	(X/Y/Z)	C:/Users/beibeiliu/ov580/test_trc/User1\sequence.27_training_dense_right.trc
DataRate	CameraRate	NumFrames	NumMarkers	Units	OrigDataRate	OrigDataStartFrame	OrigNumFrames
120	120	16	19	mm	120	1	259
Frame#	Time	ThumbCMC			ThumbMCP			ThumbIP			ThumbTip			IndexMCP			IndexPIP			IndexTip			MiddleMCP			MiddlePIP			MiddleTip			RingMCP			RingPIP			RingTip			PinkyMCP			PinkyPIP			PinkyTip			BackHand1			BackHand2			BackHand3	
		X0	Y0	Z0	X1	Y1	Z1	X2	Y2	Z2	X3	Y3	Z3	X4	Y4	Z4	X5	Y5	Z5	X6	Y6	Z6	X7	Y7	Z7	X8	Y8	Z8	X9	Y9	Z9	X10	Y10	Z10	X11	Y11	Z11	X12	Y12	Z12	X13	Y13	Z13	X14	Y14	Z14	X15	Y15	Z15	X16	Y16	Z16	X17	Y17	Z17	X18	Y18	Z18	
0	0	88.8921	17.6441	106.825	58.6917	4.29046	94.167	40.0584	-4.14152	74.7984	24.0926	-13.6791	61.6012	104.451	28.354	24.275	104.594	30.0577	-5.3789	104.195	32.4272	-26.6809	137.452	25.8365	19.1696	138.056	30.7994	-9.40147	146.147	30.7873	-39.4747	156.368	12.6344	25.1567	164.487	17.2024	-1.67099	173.722	17.796	-26.4419	171.567	-11.8134	40.4722	183.615	-15.5235	24.8347	197.251	-12.6793	9.68283	152.411	15.7218	74.9438	156.238	22.9325	109.334	122.736	32.2268	92.7273	
1	0.00833333	85.7281	17.6831	102.213	62.6332	3.21908	94.08	40.77	-4.3212	73.1319	21.5143	-13.4209	65.2263	104.06	27.6261	24.1387	103.051	32.2434	-4.6585	108.156	31.6558	-30.474	133.357	26.3623	19.4566	137.757	31.4667	-13.5287	145.977	32.0194	-41.2665	154.399	14.1989	22.6835	167.379	15.1374	1.79366	171.929	18.3229	-26.3821	170.166	-12.1044	40.7329	183.96	-15.9062	23.5324	195.101	-12.4368	3.70942	151.508	15.0361	74.8379	155.717	21.6263	108.658	121.818	33.1405	89.3466	
2	0.0166667	85.4454	18.5231	107.501	61.8933	3.13636	91.7731	39.3174	-3.27208	74.829	23.5301	-12.9798	62.6122	104.555	27.8712	23.6825	102.213	32.2108	-0.916142	108.758	31.8866	-27.0964	134.34	27.785	14.5466	137.397	32.0742	-12.9857	146.465	32.6114	-42.5701	156.772	12.9642	24.3972	163.602	16.7222	1.12654	172.239	17.4652	-25.2928	171.213	-10.9026	39.2971	182.432	-16.5485	25.3068	193.437	-12.6199	6.75663	152.38	15.0168	73.588	158.67	21.4008	105.635	123.948	32.9133	90.6016	
3	0.025	83.8988	19.2184	104.353	59.9051	4.87968	94.8222	39.2004	-3.21277	72.9575	20.937	-13.69	62.4015	102.597	29.2835	25.3636	102.703	33.696	-5.28365	110.068	33.4324	-28.7463	138.048	26.6845	16.9691	141.727	31.3759	-13.7723	148.618	31.2114	-40.9266	156.086	15.3142	22.6808	166.247	18.281	-2.47547	171.319	18.4287	-26.436	170.708	-10.4198	40.2266	180.672	-15.2457	26.126	196.517	-12.9181	3.40936	150.297	17.9081	73.3183	156.749	20.1255	108.275	119.926	33.3395	87.0168	
4	0.0333333	82.7862	20.2067	102.618	60.6415	4.55139	93.1301	39.1882	-3.0568	74.407	21.4622	-14.5002	61.5372	104.628	30.4401	21.6199	102.552	35.1288	-2.12147	109.741	34.0739	-28.2966	133.373	28.026	19.5014	139.914	32.0919	-14.2425	146.001	33.2757	-39.6778	154.182	13.4905	26.6091	163.734	19.4064	-3.9874	172.234	20.1253	-27.8569	170.911	-11.4079	42.7677	183.513	-14.6975	21.6669	196.324	-13.9325	2.32909	150.833	16.791	76.089	160.076	21.0224	107.563	125.328	31.7153	90.1355	
5	0.0416667	83.3593	19.3346	101.208	62.4452	3.61798	91.6121	42.6769	-4.09349	77.3193	23.618	-13.7006	64.5103	101.534	30.5168	22.7326	106.266	33.5686	-5.04453	104.296	37.8825	-31.1477	135.899	27.1694	19.1691	142.033	31.6722	-10.5919	145.332	33.3774	-38.3861	154.504	15.2553	23.0659	166.335	18.5587	-0.339999	169.392	19.3548	-24.9213	173.645	-12.0438	39.7393	180.777	-13.9047	24.0585	199.024	-12.9822	2.51841	154.675	14.6752	72.9125	157.107	20.8394	104.569	124.901	31.806	85.8738	
6	0.05	85.4237	18.4101	101.787	59.4394	5.49282	93.8374	37.2709	-2.15361	76.3745	19.8443	-12.7105	66.617	102.469	30.1678	22.4145	101.088	35.7126	-5.22191	108.655	35.2221	-30.1866	133.318	29.0919	17.8759	139.27	32.5329	-10.9728	145.882	33.8007	-40.2215	158.157	14.3206	23.8953	166.969	17.8028	-0.586996	172.512	18.2703	-24.316	170.026	-10.7179	41.0954	184.261	-16.6351	23.3737	198.166	-13.8895	1.87406	151.462	17.4678	75.7188	154.647	21.907	106.912	122.251	32.2526	86.6747	
7	0.0583333	84.8521	18.7896	106.405	59.9109	5.01054	93.3014	39.1007	-2.33834	76.7338	19.585	-11.4535	64.6019	100.748	31.6769	22.6219	103.76	34.1793	-6.80714	106.617	37.1661	-32.2309	135.317	28.0831	16.4613	139.6	32.6278	-12.1547	149.467	34.1833	-43.3411	158.556	13.1048	23.1458	168.001	16.8769	-1.70586	169.823	18.8937	-24.7345	169.796	-10.7925	42.2523	179.592	-15.4348	24.955	196.39	-13.955	4.3568	151.002	18.7537	71.603	155.596	22.6712	108.908	120.371	33.9096	90.0176	
8	0.0666667	86.755	17.8134	101.288	60.2628	4.61193	93.7708	42.0155	-2.83089	77.4919	21.2252	-11.9313	66.702	102.641	30.7142	21.5669	102.751	35.6663	-4.46982	107.44	35.8569	-27.3474	135.973	28.2822	18.408	140.972	33.1699	-13.6298	145.775	34.6979	-37.2549	154.829	13.712	26.4689	164.122	16.1738	0.15564	172.108	16.9342	-27.5429	171.206	-12.2628	40.5241	178.293	-17.6376	21.2172	192.999	-19.4517	5.12568	155.338	17.2381	73.3391	158.617	20.9605	105.93	123.85	31.9357	90.9233	
9	0.075	85.4461	20.578	106.279	59.7653	4.81137	93.3005	40.7333	-1.48272	77.9083	20.3764	-10.7103	64.5307	104.832	31.1783	21.8672	100.839	35.5196	-1.06206	106.199	36.8989	-30.158	133.685	31.5188	16.3554	140.555	34.8708	-12.7415	145.298	37.896	-37.1569	155.6	12.2945	25.7215	162.6	14.3077	-0.950618	169.109	13.4741	-27.1128	171.943	-14.8768	40.3011	177.135	-20.6255	20.9382	186.27	-21.5977	-0.846267	149.965	16.543	75.9194	158.259	20.1887	104.804	126.506	33.5372	91.4072	
10	0.0833333	87.5833	20.9359	102.52	57.5558	7.16332	91.6802	37.3914	-1.01503	77.3869	20.7645	-11.5498	62.9158	102.691	32.4181	25.5156	101.11	37.5125	-5.04168	109.058	37.0363	-27.4974	135.686	30.3483	17.1572	142.554	34.9555	-8.32412	147.64	38.3731	-37.0837	157.513	11.3286	21.4278	163.57	12.2043	-2.67287	168.332	9.73344	-28.1391	170.805	-16.8126	39.4315	174.154	-23.0917	19.3761	182.163	-28.8255	-6.46182	150.717	17.3811	77.2472	158.021	22.6203	108.517	125.069	32.3285	91.67	
11	0.0916667	86.9093	21.1846	106.819	63.1736	6.14394	91.6012	37.9508	-1.53578	73.2029	18.9812	-11.7481	61.428	101.481	33.9187	22.8842	103.803	37.6456	-4.56518	107.107	38.9331	-30.5775	133.098	31.0078	19.9017	141.981	36.7608	-9.9108	145.904	41.5437	-37.3332	156.37	11.0162	21.0308	163.153	9.06018	-3.99269	165.165	5.34257	-32.2269	166.507	-15.7816	33.7843	172.623	-27.3087	15.3215	176.159	-36.2363	-6.3459	153.031	16.9646	71.6698	157.367	21.7121	106.654	121.534	34.1404	87.6052	
12	0.1	84.8992	22.8589	106.231	62.1347	6.86663	91.5862	41.5048	-0.960002	77.2105	22.299	-10.1755	64.1659	101.777	37.1391	21.4456	104.333	38.7096	-4.03487	104.152	40.306	-26.0216	134.448	33.8304	15.6291	143.978	36.0613	-12.1805	148.903	40.0719	-37.3591	154.346	10.3157	18.575	162.463	5.43462	-8.67977	160.181	1.81544	-33.5111	167.098	-17.6532	34.0868	166.804	-28.2532	15.1733	165.113	-39.6208	-7.79404	152.47	19.7842	73.0629	157.213	20.8885	105.974	123.618	36.6989	91.4981	
13	0.108333	88.6065	21.8105	102.847	61.093	6.75872	91.2164	42.5887	-0.189456	74.3045	23.2744	-9.88988	64.7879	105.06	34.8583	24.1134	105.942	39.2723	-3.3531	106.848	42.7555	-30.7495	138.327	30.6151	20.2505	143.429	35.9794	-7.88188	151.062	41.2154	-38.8087	155.781	7.85449	17.2443	154.389	5.17544	-8.59769	156.504	-5.29471	-31.083	166.249	-18.7376	37.1035	163.141	-33.541	14.0954	155.429	-42.6618	-5.1973	152.222	18.588	76.1676	157.984	20.7737	104.912	123.701	37.1976	91.9616	
14	0.116667	86.9227	22.756	103.702	59.144	8.46236	94.1665	41.7966	1.11566	74.7543	20.9116	-8.41215	59.1224	103.504	39.4967	21.7883	105.973	41.1521	-4.9962	105.924	44.316	-27.4716	134.422	33.3673	18.2271	143.677	36.2001	-6.86847	149.914	41.9405	-37.4698	154.251	6.64095	18.0741	153.129	-0.854477	-13.1902	146.41	-15.2648	-35.4527	162.382	-18.7889	35.9641	161.136	-35.183	15.827	142.465	-51.0045	-4.04204	154.967	16.8697	74.4137	156.912	21.7692	107.136	123.999	35.5138	88.7179	
15	0.125	85.9371	25.0573	104.231	61.6868	8.66273	92.3379	41.4658	2.85372	75.7688	24.0292	-6.41589	61.9801	103.118	42.4384	24.1825	103.468	46.0111	-3.47193	105.344	49.1624	-26.2895	136.158	35.4292	17.151	140.824	41.3557	-10.6553	147.785	44.6075	-35.8292	148.079	9.59072	15.7618	150.903	-3.62284	-10.3217	137.61	-24.091	-30.5588	160.197	-19.3701	34.1733	152.426	-37.0262	16.0105	129.168	-52.1102	3.67549	156.868	18.3111	75.2254	161.17	20.9741	104.746	125.452	36.3405	92.9849	
